<svg xmlns="http://www.w3.org/2000/svg" width="80" height="80"><g fill="#fff"><path d="M19 13A16 16 0 0 0 3 29a16 16 0 0 0 3.117 9.455A18 18 0 0 1 19 33a18 18 0 0 1 12.895 5.443A16 16 0 0 0 35 29a16 16 0 0 0-16-16z"/><path d="M19 35A16 16 0 0 0 3 51a16 16 0 0 0 16 16 16 16 0 0 0 3.213-.344A18 18 0 0 1 22 64a18 18 0 0 1 12.455-17.102A16 16 0 0 0 19 35z"/><path d="M40 48a16 16 0 0 0-16 16 16 16 0 0 0 16 16 16 16 0 0 0 15.443-11.89A18 18 0 0 1 43 51a18 18 0 0 1 .223-2.67A16 16 0 0 0 40 48z"/><path d="M73.883 41.545A18 18 0 0 1 61 47a18 18 0 0 1-12.895-5.443A16 16 0 0 0 45 51a16 16 0 0 0 16 16 16 16 0 0 0 16-16 16 16 0 0 0-3.117-9.455z"/><path d="M61 13a16 16 0 0 0-3.213.344A18 18 0 0 1 58 16a18 18 0 0 1-12.455 17.102A16 16 0 0 0 61 45a16 16 0 0 0 16-16 16 16 0 0 0-16-16z"/><path d="M40 0a16 16 0 0 0-15.443 11.89A18 18 0 0 1 37 29a18 18 0 0 1-.223 2.67A16 16 0 0 0 40 32a16 16 0 0 0 16-16A16 16 0 0 0 40 0z"/></g></svg>